<mxfile host="app.diagrams.net" modified="2023-09-27T10:07:58.829Z" agent="Mozilla/5.0 (Windows NT 10.0; Win64; x64) AppleWebKit/537.36 (KHTML, like Gecko) Chrome/116.0.0.0 Safari/537.36" etag="Kpf57jQyK6vAVo4V7hX2" version="21.7.5" type="github">
  <diagram name="Page-1" id="e7e014a7-5840-1c2e-5031-d8a46d1fe8dd">
    <mxGraphModel dx="989" dy="545" grid="1" gridSize="10" guides="1" tooltips="1" connect="1" arrows="1" fold="1" page="1" pageScale="1" pageWidth="1169" pageHeight="826" background="none" math="0" shadow="0">
      <root>
        <mxCell id="0" />
        <mxCell id="1" parent="0" />
        <mxCell id="LrQh9-DmiU1aHjZgSh-4-47" value="&lt;font style=&quot;font-size: 18px;&quot;&gt;avatar-lib&lt;/font&gt;" style="shape=umlLifeline;perimeter=lifelinePerimeter;whiteSpace=wrap;html=1;container=1;dropTarget=0;collapsible=0;recursiveResize=0;outlineConnect=0;portConstraint=eastwest;newEdgeStyle={&quot;curved&quot;:0,&quot;rounded&quot;:0};" vertex="1" parent="1">
          <mxGeometry x="300" y="130" width="90" height="480" as="geometry" />
        </mxCell>
        <mxCell id="LrQh9-DmiU1aHjZgSh-4-56" value="" style="html=1;points=[[0,0,0,0,5],[0,1,0,0,-5],[1,0,0,0,5],[1,1,0,0,-5]];perimeter=orthogonalPerimeter;outlineConnect=0;targetShapes=umlLifeline;portConstraint=eastwest;newEdgeStyle={&quot;curved&quot;:0,&quot;rounded&quot;:0};" vertex="1" parent="LrQh9-DmiU1aHjZgSh-4-47">
          <mxGeometry x="40" y="60" width="10" height="200" as="geometry" />
        </mxCell>
        <mxCell id="LrQh9-DmiU1aHjZgSh-4-81" value="&lt;font style=&quot;font-size: 14px;&quot;&gt;回调函数消费&lt;br&gt;所有数据隔离id&lt;/font&gt;" style="html=1;align=left;spacingLeft=2;endArrow=block;rounded=0;edgeStyle=orthogonalEdgeStyle;curved=0;rounded=0;" edge="1" parent="LrQh9-DmiU1aHjZgSh-4-47" source="LrQh9-DmiU1aHjZgSh-4-56">
          <mxGeometry relative="1" as="geometry">
            <mxPoint x="60" y="210" as="sourcePoint" />
            <Array as="points">
              <mxPoint x="75" y="200" />
              <mxPoint x="75" y="240" />
            </Array>
            <mxPoint x="50" y="240.0344827586207" as="targetPoint" />
          </mxGeometry>
        </mxCell>
        <mxCell id="LrQh9-DmiU1aHjZgSh-4-83" value="" style="html=1;points=[[0,0,0,0,5],[0,1,0,0,-5],[1,0,0,0,5],[1,1,0,0,-5]];perimeter=orthogonalPerimeter;outlineConnect=0;targetShapes=umlLifeline;portConstraint=eastwest;newEdgeStyle={&quot;curved&quot;:0,&quot;rounded&quot;:0};" vertex="1" parent="LrQh9-DmiU1aHjZgSh-4-47">
          <mxGeometry x="40" y="330" width="10" height="100" as="geometry" />
        </mxCell>
        <mxCell id="LrQh9-DmiU1aHjZgSh-4-48" value="&lt;span style=&quot;font-size: 18px;&quot;&gt;trantor内服务&lt;/span&gt;" style="shape=umlLifeline;perimeter=lifelinePerimeter;whiteSpace=wrap;html=1;container=1;dropTarget=0;collapsible=0;recursiveResize=0;outlineConnect=0;portConstraint=eastwest;newEdgeStyle={&quot;curved&quot;:0,&quot;rounded&quot;:0};" vertex="1" parent="1">
          <mxGeometry x="507" y="130" width="90" height="480" as="geometry" />
        </mxCell>
        <mxCell id="LrQh9-DmiU1aHjZgSh-4-55" value="" style="html=1;points=[[0,0,0,0,5],[0,1,0,0,-5],[1,0,0,0,5],[1,1,0,0,-5]];perimeter=orthogonalPerimeter;outlineConnect=0;targetShapes=umlLifeline;portConstraint=eastwest;newEdgeStyle={&quot;curved&quot;:0,&quot;rounded&quot;:0};" vertex="1" parent="LrQh9-DmiU1aHjZgSh-4-48">
          <mxGeometry x="40" y="60" width="10" height="30" as="geometry" />
        </mxCell>
        <mxCell id="LrQh9-DmiU1aHjZgSh-4-49" value="&lt;font style=&quot;font-size: 18px;&quot;&gt;avatar-service&lt;/font&gt;" style="shape=umlLifeline;perimeter=lifelinePerimeter;whiteSpace=wrap;html=1;container=1;dropTarget=0;collapsible=0;recursiveResize=0;outlineConnect=0;portConstraint=eastwest;newEdgeStyle={&quot;curved&quot;:0,&quot;rounded&quot;:0};" vertex="1" parent="1">
          <mxGeometry x="90" y="130" width="90" height="480" as="geometry" />
        </mxCell>
        <mxCell id="LrQh9-DmiU1aHjZgSh-4-75" value="" style="html=1;points=[[0,0,0,0,5],[0,1,0,0,-5],[1,0,0,0,5],[1,1,0,0,-5]];perimeter=orthogonalPerimeter;outlineConnect=0;targetShapes=umlLifeline;portConstraint=eastwest;newEdgeStyle={&quot;curved&quot;:0,&quot;rounded&quot;:0};" vertex="1" parent="LrQh9-DmiU1aHjZgSh-4-49">
          <mxGeometry x="40" y="100" width="10" height="80" as="geometry" />
        </mxCell>
        <mxCell id="LrQh9-DmiU1aHjZgSh-4-82" value="" style="html=1;points=[[0,0,0,0,5],[0,1,0,0,-5],[1,0,0,0,5],[1,1,0,0,-5]];perimeter=orthogonalPerimeter;outlineConnect=0;targetShapes=umlLifeline;portConstraint=eastwest;newEdgeStyle={&quot;curved&quot;:0,&quot;rounded&quot;:0};" vertex="1" parent="LrQh9-DmiU1aHjZgSh-4-49">
          <mxGeometry x="40" y="330" width="10" height="30" as="geometry" />
        </mxCell>
        <mxCell id="LrQh9-DmiU1aHjZgSh-4-58" value="&lt;font style=&quot;font-size: 14px;&quot;&gt;注册回调函数&lt;/font&gt;" style="endArrow=block;endSize=16;endFill=0;html=1;rounded=0;exitX=0;exitY=0;exitDx=0;exitDy=5;exitPerimeter=0;" edge="1" parent="1" source="LrQh9-DmiU1aHjZgSh-4-55" target="LrQh9-DmiU1aHjZgSh-4-56">
          <mxGeometry width="160" relative="1" as="geometry">
            <mxPoint x="500" y="350" as="sourcePoint" />
            <mxPoint x="660" y="350" as="targetPoint" />
          </mxGeometry>
        </mxCell>
        <mxCell id="LrQh9-DmiU1aHjZgSh-4-76" value="&lt;span style=&quot;font-size: 14px;&quot;&gt;请求所有数据隔离id&lt;/span&gt;" style="html=1;verticalAlign=bottom;endArrow=block;curved=0;rounded=0;entryX=1;entryY=0;entryDx=0;entryDy=5;" edge="1" target="LrQh9-DmiU1aHjZgSh-4-75" parent="1" source="LrQh9-DmiU1aHjZgSh-4-56">
          <mxGeometry relative="1" as="geometry">
            <mxPoint x="210" y="235" as="sourcePoint" />
          </mxGeometry>
        </mxCell>
        <mxCell id="LrQh9-DmiU1aHjZgSh-4-77" value="&lt;font style=&quot;font-size: 14px;&quot;&gt;返回所有数据隔离id&lt;/font&gt;" style="html=1;verticalAlign=bottom;endArrow=open;dashed=1;endSize=8;curved=0;rounded=0;exitX=1;exitY=1;exitDx=0;exitDy=-5;" edge="1" source="LrQh9-DmiU1aHjZgSh-4-75" parent="1" target="LrQh9-DmiU1aHjZgSh-4-56">
          <mxGeometry relative="1" as="geometry">
            <mxPoint x="210" y="305" as="targetPoint" />
          </mxGeometry>
        </mxCell>
        <mxCell id="LrQh9-DmiU1aHjZgSh-4-84" value="Loop" style="shape=umlFrame;whiteSpace=wrap;html=1;pointerEvents=0;" vertex="1" parent="1">
          <mxGeometry x="100" y="410" width="390" height="190" as="geometry" />
        </mxCell>
        <mxCell id="LrQh9-DmiU1aHjZgSh-4-87" value="&lt;span style=&quot;font-size: 14px;&quot;&gt;产生新的数据隔离id&lt;/span&gt;" style="endArrow=block;endSize=16;endFill=0;html=1;rounded=0;entryX=0;entryY=0;entryDx=0;entryDy=5;entryPerimeter=0;" edge="1" parent="1" source="LrQh9-DmiU1aHjZgSh-4-82" target="LrQh9-DmiU1aHjZgSh-4-83">
          <mxGeometry width="160" relative="1" as="geometry">
            <mxPoint x="737" y="440" as="sourcePoint" />
            <mxPoint x="540" y="440" as="targetPoint" />
          </mxGeometry>
        </mxCell>
        <mxCell id="LrQh9-DmiU1aHjZgSh-4-88" value="&lt;font style=&quot;font-size: 14px;&quot;&gt;回调函数消费&lt;br&gt;数据隔离id&lt;/font&gt;" style="html=1;align=left;spacingLeft=2;endArrow=block;rounded=0;edgeStyle=orthogonalEdgeStyle;curved=0;rounded=0;" edge="1" parent="1">
          <mxGeometry relative="1" as="geometry">
            <mxPoint x="350" y="490" as="sourcePoint" />
            <Array as="points">
              <mxPoint x="375" y="490" />
              <mxPoint x="375" y="530" />
            </Array>
            <mxPoint x="350" y="530.0344827586207" as="targetPoint" />
          </mxGeometry>
        </mxCell>
      </root>
    </mxGraphModel>
  </diagram>
</mxfile>
